<?xml version="1.0" encoding="UTF-8"?>
<!DOCTYPE svg PUBLIC "-//W3C//DTD SVG 1.1//EN" "http://www.w3.org/Graphics/SVG/1.1/DTD/svg11.dtd">
<svg xmlns="http://www.w3.org/2000/svg" version="1.1" viewBox="0 0 512 512" preserveAspectRatio="xMidYMid meet" style="width: 100%; height: 100%; shape-rendering:geometricPrecision; text-rendering:geometricPrecision; image-rendering:optimizeQuality; fill-rule:evenodd; clip-rule:evenodd" xmlns:xlink="http://www.w3.org/1999/xlink">
<g><path style="opacity:0.972" fill="#000000" d="M 148.5,47.5 C 219.834,47.3333 291.167,47.5 362.5,48C 409.181,46.0808 444.348,64.9141 468,104.5C 476.743,122.136 481.743,140.803 483,160.5C 486.333,223.833 486.333,287.167 483,350.5C 481.427,389.486 465.26,420.653 434.5,444C 419.611,453.63 403.278,459.297 385.5,461C 377.854,461.903 370.188,462.57 362.5,463C 291.167,463.667 219.833,463.667 148.5,463C 79.533,462.028 39.6997,427.528 29,359.5C 28.1296,352.185 27.463,344.852 27,337.5C 24.7457,278.48 25.079,219.48 28,160.5C 35.5382,87.7894 75.7049,50.1227 148.5,47.5 Z M 218.5,79.5 C 266.508,79.2655 314.508,79.7655 362.5,81C 407.263,79.8018 435.43,100.635 447,143.5C 449.064,154.073 450.397,164.739 451,175.5C 453,228.833 453,282.167 451,335.5C 450.905,355.984 446.238,375.318 437,393.5C 427.553,408.643 414.387,419.143 397.5,425C 385.989,427.731 374.322,429.397 362.5,430C 314.507,431.187 266.507,431.687 218.5,431.5C 218.5,314.167 218.5,196.833 218.5,79.5 Z M 148.5,80.5 C 160.833,80.5 173.167,80.5 185.5,80.5C 185.5,197.167 185.5,313.833 185.5,430.5C 160.158,431.916 135.158,429.749 110.5,424C 88.255,414.707 73.4217,398.54 66,375.5C 61.1899,354.117 58.8566,332.451 59,310.5C 58.3333,273.833 58.3333,237.167 59,200.5C 58.8566,178.549 61.1899,156.883 66,135.5C 74.2974,109.535 91.4641,92.7018 117.5,85C 127.921,83.0753 138.254,81.5753 148.5,80.5 Z"/></g>
<g><path style="opacity:0.948" fill="#000000" d="M 101.5,132.5 C 111.839,132.334 122.172,132.5 132.5,133C 143.806,138.479 146.639,146.979 141,158.5C 138.512,162.325 135.012,164.492 130.5,165C 121.167,165.667 111.833,165.667 102.5,165C 89.8397,159.691 86.673,150.858 93,138.5C 95.3218,135.605 98.1552,133.605 101.5,132.5 Z"/></g>
<g><path style="opacity:0.948" fill="#000000" d="M 101.5,196.5 C 111.839,196.334 122.172,196.5 132.5,197C 143.806,202.479 146.639,210.979 141,222.5C 138.512,226.325 135.012,228.492 130.5,229C 121.167,229.667 111.833,229.667 102.5,229C 89.8397,223.691 86.673,214.858 93,202.5C 95.3218,199.605 98.1552,197.605 101.5,196.5 Z"/></g>
</svg>