<svg width="160" height="45" viewBox="0 0 160 45" fill="none" xmlns="http://www.w3.org/2000/svg">
<path d="M9.71484 25.0742V44H0.632812V11.2461H9.56836V17.0762H9.89062C10.6328 15.1621 11.8145 13.6484 13.4355 12.5352C15.0566 11.4023 17.0781 10.8359 19.5 10.8359C22.918 10.8359 25.6523 11.9395 27.7031 14.1465C29.7734 16.334 30.8086 19.3418 30.8086 23.1699V44H21.7266V24.7812C21.7266 22.7695 21.209 21.1973 20.1738 20.0645C19.1582 18.9316 17.7422 18.3652 15.9258 18.3652C14.0898 18.3652 12.5957 18.9609 11.4434 20.1523C10.291 21.3242 9.71484 22.9648 9.71484 25.0742ZM52.9863 44.6445C49.627 44.6445 46.7363 43.9609 44.3145 42.5938C41.8926 41.2266 40.0273 39.2832 38.7188 36.7637C37.4102 34.2246 36.7559 31.2266 36.7559 27.7695C36.7559 24.4102 37.4004 21.4609 38.6895 18.9219C39.998 16.3828 41.834 14.4004 44.1973 12.9746C46.5605 11.5488 49.3438 10.8359 52.5469 10.8359C55.4375 10.8359 58.0449 11.4512 60.3691 12.6816C62.7129 13.9121 64.5684 15.7578 65.9355 18.2188C67.3223 20.6797 68.0156 23.7656 68.0156 27.4766V29.9375H45.6914C45.7891 32.418 46.5117 34.3613 47.8594 35.7676C49.207 37.1738 50.9648 37.877 53.1328 37.877C54.6367 37.877 55.9258 37.5547 57 36.9102C58.0938 36.2656 58.875 35.3281 59.3438 34.0977L67.7227 34.6543C67.0781 37.6621 65.4668 40.084 62.8887 41.9199C60.3301 43.7363 57.0293 44.6445 52.9863 44.6445ZM45.75 24.3418H59.3145C59.0996 22.2715 58.4355 20.6309 57.3223 19.4199C56.209 18.209 54.6465 17.6035 52.6348 17.6035C50.6035 17.6035 48.9922 18.2383 47.8008 19.5078C46.6289 20.7578 45.9453 22.3691 45.75 24.3418ZM73.9922 0.347656H83.0742V23.6973H83.5723L94.0312 11.2461H104.461L92.332 25.4551L105.047 44H94.4414L85.5352 30.7871L83.0742 33.5703V44H73.9922V0.347656ZM126.316 11.2461V18.1016H120.105V33.9219C120.105 36.0508 121.141 37.1152 123.211 37.1152C123.562 37.1152 123.943 37.0859 124.354 37.0273C124.783 36.9688 125.154 36.9004 125.467 36.8223L126.902 43.6191C124.969 44.1855 123.094 44.4688 121.277 44.4688C118.035 44.4688 115.516 43.6484 113.719 42.0078C111.941 40.3672 111.053 38.0723 111.053 35.123V18.1016H106.6V11.2461H111.053V3.45312H120.105V11.2461H126.316ZM141.58 44.6152C138.455 44.6152 135.857 43.8047 133.787 42.1836C131.736 40.543 130.711 38.1016 130.711 34.8594C130.711 32.418 131.277 30.5039 132.41 29.1172C133.562 27.7109 135.076 26.6855 136.951 26.041C138.826 25.377 140.838 24.9473 142.986 24.752C145.838 24.4785 147.869 24.1953 149.08 23.9023C150.311 23.5898 150.926 22.9062 150.926 21.8516V21.7051C150.926 20.3574 150.496 19.3125 149.637 18.5703C148.777 17.8281 147.537 17.457 145.916 17.457C144.295 17.457 142.967 17.8086 141.932 18.5117C140.916 19.2148 140.242 20.1133 139.91 21.207L131.648 19.8887C132.43 17.0371 134.07 14.8203 136.57 13.2383C139.09 11.6367 142.215 10.8359 145.945 10.8359C148.367 10.8359 150.643 11.2168 152.771 11.9785C154.92 12.7402 156.658 13.9414 157.986 15.582C159.314 17.2031 159.979 19.3125 159.979 21.9102V44H151.395V39.4297H151.131C150.33 40.9727 149.139 42.2227 147.557 43.1797C145.994 44.1367 144.002 44.6152 141.58 44.6152ZM139.354 34.5664C139.354 35.8164 139.803 36.7637 140.701 37.4082C141.619 38.0332 142.771 38.3457 144.158 38.3457C146.15 38.3457 147.781 37.7695 149.051 36.6172C150.34 35.4648 150.984 34.0293 150.984 32.3105V28.8242C150.633 29.0586 150.076 29.2734 149.314 29.4688C148.572 29.6641 147.781 29.8301 146.941 29.9668C146.102 30.084 145.35 30.1914 144.686 30.2891C143.084 30.5234 141.795 30.9824 140.818 31.666C139.842 32.3301 139.354 33.2969 139.354 34.5664Z" fill="black"/>
</svg>
